<svg  xmlns="http://www.w3.org/2000/svg" xmlns:xlink="http://www.w3.org/1999/xlink" height="226" preserveAspectRatio="none" width="155">
    <g data-name="Layer 31" id="uid_19">
        <rect fill="#6f42c1" height="226" rx="6.61" ry="6.61" width="155" />
        <rect fill="#ffffff" height="118" rx="6.58" ry="6.58" width="79" x="38" y="54" />
        <rect fill="#6f42c1" height="108" rx="5.67" ry="5.67" width="70" x="43" y="59" />
        <rect fill="#c5cae9" height="46" rx="3.18" ry="3.18" width="30.23" x="4" y="4" />
        <path fill="#1a237e"
            d="M13.86 31.6c-2-3.29 1.31-5.26 1.31-5.26a5.13 5.13 0 002.63-2c.66-1.31 2-2.63 3.29-2.63s4.6 1.31 3.29 4.6c-.66 2-1.31 2.63-2.63 4.6s-5.92 3.98-7.89.69z" />
        <rect fill="#c5cae9" height="46" rx="3.18" ry="3.18" width="30.23" x="81.38" y="4" />
        <path fill="#1a237e"
            d="M91.24 31.6c-2-3.29 1.31-5.26 1.31-5.26a5.13 5.13 0 002.63-2c.66-1.31 2-2.63 3.29-2.63s4.6 1.31 3.29 4.6c-.66 2-1.31 2.63-2.63 4.6s-5.92 3.98-7.89.69z" />
        <rect fill="#c5cae9" height="46" rx="3.18" ry="3.18" width="30.23" x="43.19" y="4" />
        <path fill="#1a237e"
            d="M53 31.6c-2-3.29 1.31-5.26 1.31-5.26a5.13 5.13 0 002.63-2c.66-1.31 2-2.63 3.29-2.63s4.6 1.31 3.29 4.6c-.66 2-1.31 2.63-2.63 4.6S55 34.89 53 31.6z" />
        <rect fill="#c5cae9" height="46" rx="3.18" ry="3.18" width="30.23" x="120.57" y="4" />
        <path fill="#1a237e"
            d="M130.43 31.6c-2-3.29 1.31-5.26 1.31-5.26a5.13 5.13 0 002.63-2c.66-1.31 2-2.63 3.29-2.63s4.6 1.31 3.29 4.6c-.66 2-1.31 2.63-2.63 4.6s-5.92 3.98-7.89.69z" />
        <rect fill="#c5cae9" height="46" rx="3.18" ry="3.18" width="30.23" x="4" y="176" />
        <path fill="#1a237e"
            d="M13.86 203.6c-2-3.29 1.31-5.26 1.31-5.26a5.13 5.13 0 002.63-2c.66-1.31 2-2.63 3.29-2.63s4.6 1.31 3.29 4.6c-.66 2-1.31 2.63-2.63 4.6s-5.92 3.98-7.89.69z" />
        <rect fill="#c5cae9" height="46" rx="3.18" ry="3.18" width="30.23" x="81.38" y="176" />
        <path fill="#1a237e"
            d="M91.24 203.6c-2-3.29 1.31-5.26 1.31-5.26a5.13 5.13 0 002.63-2c.66-1.31 2-2.63 3.29-2.63s4.6 1.31 3.29 4.6c-.66 2-1.31 2.63-2.63 4.6s-5.92 3.98-7.89.69z" />
        <rect fill="#c5cae9" height="46" rx="3.18" ry="3.18" width="30.23" x="43.19" y="176" />
        <path fill="#1a237e"
            d="M53 203.6c-2-3.29 1.31-5.26 1.31-5.26a5.13 5.13 0 002.63-2c.66-1.31 2-2.63 3.29-2.63s4.6 1.31 3.29 4.6c-.66 2-1.31 2.63-2.63 4.6s-5.89 3.98-7.89.69z" />
        <rect fill="#c5cae9" height="46" rx="3.18" ry="3.18" width="30.23" x="120.57" y="176" />
        <path fill="#1a237e"
            d="M130.43 203.6c-2-3.29 1.31-5.26 1.31-5.26a5.13 5.13 0 002.63-2c.66-1.31 2-2.63 3.29-2.63s4.6 1.31 3.29 4.6c-.66 2-1.31 2.63-2.63 4.6s-5.92 3.98-7.89.69z" />
        <rect fill="#c5cae9" height="46" rx="3.18" ry="3.18" width="30.23" x="4" y="61" />
        <path fill="#1a237e"
            d="M13.86 88.6c-2-3.29 1.31-5.26 1.31-5.26a5.13 5.13 0 002.63-2c.66-1.31 2-2.63 3.29-2.63s4.6 1.31 3.29 4.6c-.66 2-1.31 2.63-2.63 4.6s-5.92 3.98-7.89.69z" />
        <rect fill="#c5cae9" height="46" rx="3.18" ry="3.18" width="30.23" x="4" y="119" />
        <path fill="#1a237e"
            d="M13.86 146.6c-2-3.29 1.31-5.26 1.31-5.26a5.13 5.13 0 002.63-2c.66-1.31 2-2.63 3.29-2.63s4.6 1.31 3.29 4.6c-.66 2-1.31 2.63-2.63 4.6s-5.92 3.98-7.89.69z" />
        <rect fill="#c5cae9" height="46" rx="3.18" ry="3.18" width="30.23" x="121" y="61" />
        <path fill="#1a237e"
            d="M130.86 88.6c-2-3.29 1.31-5.26 1.31-5.26a5.13 5.13 0 002.63-2c.66-1.31 2-2.63 3.29-2.63s4.6 1.31 3.29 4.6c-.66 2-1.31 2.63-2.63 4.6s-5.92 3.98-7.89.69z" />
        <rect fill="#c5cae9" height="46" rx="3.18" ry="3.18" width="30.23" x="121" y="119" />
        <path fill="#1a237e"
            d="M130.86 146.6c-2-3.29 1.31-5.26 1.31-5.26a5.13 5.13 0 002.63-2c.66-1.31 2-2.63 3.29-2.63s4.6 1.31 3.29 4.6c-.66 2-1.31 2.63-2.63 4.6s-5.92 3.98-7.89.69z" />
        <rect fill="#c5cae9" height="46" rx="3.18" ry="3.18" width="30.23" x="46" y="65" />
        <path fill="#1a237e"
            d="M55.86 92.6c-2-3.29 1.31-5.26 1.31-5.26a5.13 5.13 0 002.63-2c.66-1.31 2-2.63 3.29-2.63s4.6 1.31 3.29 4.6c-.66 2-1.31 2.63-2.63 4.6s-5.92 3.98-7.89.69z" />
        <rect fill="#c5cae9" height="46" rx="3.18" ry="3.18" width="30.23" x="46" y="114" />
        <path fill="#1a237e"
            d="M55.86 141.6c-2-3.29 1.31-5.26 1.31-5.26a5.13 5.13 0 002.63-2c.66-1.31 2-2.63 3.29-2.63s4.6 1.31 3.29 4.6c-.66 2-1.31 2.63-2.63 4.6s-5.92 3.98-7.89.69z" />
        <rect fill="#c5cae9" height="46" rx="3.18" ry="3.18" width="30.23"
            x="80" y="65" />
        <path fill="#1a237e"
            d="M89.91 92.66c-2-3.26 1.25-5.27 1.25-5.27a5.13 5.13 0 002.61-2c.64-1.32 1.94-2.65 3.25-2.67s4.62 1.26 3.34 4.56c-.63 2-1.28 2.64-2.57 4.63s-5.87 4.01-7.88.75z" />
        <rect fill="#c5cae9" height="46" rx="3.18" ry="3.18" width="30.23" x="80" y="114" />
        <path fill="#1a237e"
            d="M89.86 141.6c-2-3.29 1.31-5.26 1.31-5.26a5.13 5.13 0 002.63-2c.66-1.31 2-2.63 3.29-2.63s4.6 1.31 3.29 4.6c-.66 2-1.31 2.63-2.63 4.6s-5.92 3.98-7.89.69z" />
    </g>                    
</svg>