<?xml version="1.0" encoding="utf-8"?>
<!-- Generator: Adobe Illustrator 24.0.0, SVG Export Plug-In . SVG Version: 6.00 Build 0)  -->
<svg version="1.1" id="Layer_1" xmlns="http://www.w3.org/2000/svg" xmlns:xlink="http://www.w3.org/1999/xlink" x="0px" y="0px"
	 viewBox="0 0 155 226" style="enable-background:new 0 0 155 226;" xml:space="preserve">
<style type="text/css">
	.st0{fill:#6F42C1;}
	.st1{fill:#C5CAE9;}
	.st2{fill:#1A237E;}
</style>
<g id="uid_19">
	<path class="st0" d="M6.6,0h141.8c3.7,0,6.6,3,6.6,6.6v212.8c0,3.7-3,6.6-6.6,6.6H6.6C3,226,0,223,0,219.4V6.6C0,3,3,0,6.6,0z"/>
	<path class="st1" d="M0,0"/>
	<path class="st1" d="M0,0"/>
	<path class="st1" d="M0,0"/>
	<path class="st1" d="M0,0"/>
	<path class="st1" d="M0,0"/>
	<path class="st1" d="M0,0"/>
	<path class="st1" d="M0,0"/>
	<path class="st1" d="M120.7,6h26.2c1.9,0,3.5,1.6,3.5,3.5v43.6c0,1.9-1.6,3.5-3.5,3.5h-26.2c-1.9,0-3.5-1.6-3.5-3.5V9.5
		C117.2,7.6,118.8,6,120.7,6z"/>
	<path class="st1" d="M0,0"/>
	<path class="st1" d="M0,0"/>
	<path class="st1" d="M0,0"/>
	<path class="st1" d="M0,0"/>
	<path class="st1" d="M0,0"/>
	<path class="st1" d="M45.3,60.3h26.2c1.9,0,3.5,1.6,3.5,3.5v43.6c0,1.9-1.6,3.5-3.5,3.5H45.3c-1.9,0-3.5-1.6-3.5-3.5V63.8
		C41.8,61.9,43.4,60.3,45.3,60.3z"/>
	<path class="st1" d="M8.3,5.6h26.2c1.9,0,3.5,1.6,3.5,3.5v43.6c0,1.9-1.6,3.5-3.5,3.5H8.3c-1.9,0-3.5-1.6-3.5-3.5V9.1
		C4.8,7.1,6.4,5.6,8.3,5.6z"/>
	<path class="st1" d="M0,0"/>
	<path class="st1" d="M45.3,116.1h26.2c1.9,0,3.5,1.6,3.5,3.5v43.6c0,1.9-1.6,3.5-3.5,3.5H45.3c-1.9,0-3.5-1.6-3.5-3.5v-43.6
		C41.8,117.7,43.4,116.1,45.3,116.1z"/>
	<path class="st1" d="M8.3,169.3h26.2c1.9,0,3.5,1.6,3.5,3.5v43.6c0,1.9-1.6,3.5-3.5,3.5H8.3c-1.9,0-3.5-1.6-3.5-3.5v-43.6
		C4.8,170.9,6.4,169.3,8.3,169.3z"/>
	<path class="st1" d="M0,0"/>
	<path class="st1" d="M84.7,60.3h26.2c1.9,0,3.5,1.6,3.5,3.5v43.6c0,1.9-1.6,3.5-3.5,3.5H84.7c-1.9,0-3.5-1.6-3.5-3.5V63.8
		C81.2,61.9,82.8,60.3,84.7,60.3z"/>
	<path class="st1" d="M0,0"/>
	<path class="st1" d="M84.7,116.1h26.2c1.9,0,3.5,1.6,3.5,3.5v43.6c0,1.9-1.6,3.5-3.5,3.5H84.7c-1.9,0-3.5-1.6-3.5-3.5v-43.6
		C81.2,117.7,82.8,116.1,84.7,116.1z"/>
	<path class="st1" d="M121.7,169.3h26.2c1.9,0,3.5,1.6,3.5,3.5v43.6c0,1.9-1.6,3.5-3.5,3.5h-26.2c-1.9,0-3.5-1.6-3.5-3.5v-43.6
		C118.2,170.9,119.8,169.3,121.7,169.3z"/>
	<path class="st1" d="M0,0"/>
</g>
<path class="st2" d="M13.6,38.1c-3-5,2-8,2-8s3-1,4-3s3-4,5-4s7,2,5,7c-1,3-2,4-4,7S16.6,43.1,13.6,38.1z"/>
<path class="st2" d="M127,38.1c-3-5,2-8,2-8s3-1,4-3s3-4,5-4s7,2,5,7c-1,3-2,4-4,7S130,43.1,127,38.1z"/>
<path class="st2" d="M129.2,200.7c-3-5,2-8,2-8s3-1,4-3s3-4,5-4s7,2,5,7c-1,3-2,4-4,7S132.2,205.7,129.2,200.7z"/>
<path class="st2" d="M13.7,200.7c-3-5,2-8,2-8s3-1,4-3s3-4,5-4s7,2,5,7c-1,3-2,4-4,7S16.7,205.7,13.7,200.7z"/>
<path class="st2" d="M50.7,91.7c-3-5,2-8,2-8s3-1,4-3s3-4,5-4s7,2,5,7c-1,3-2,4-4,7C60.7,93.7,53.7,96.7,50.7,91.7z"/>
<path class="st2" d="M90,91.7c-3-5,2-8,2-8s3-1,4-3s3-4,5-4s7,2,5,7c-1,3-2,4-4,7S93,96.7,90,91.7z"/>
<path class="st2" d="M90,147.6c-3-5,2-8,2-8s3-1,4-3s3-4,5-4s7,2,5,7c-1,3-2,4-4,7S93,152.6,90,147.6z"/>
<path class="st2" d="M50.7,147.6c-3-5,2-8,2-8s3-1,4-3s3-4,5-4s7,2,5,7c-1,3-2,4-4,7C60.7,149.6,53.7,152.6,50.7,147.6z"/>
</svg>
