<svg id="Layer_1" data-name="Layer 1" xmlns="http://www.w3.org/2000/svg" viewBox="0 0 106 156.3"><title>wincon3_1</title><path d="M55,87.7H29a3.5,3.5,0,0,0-3.5,3.5v43.3A3.5,3.5,0,0,0,29,138H55a3.5,3.5,0,0,0,3.5-3.5V91.2A3.5,3.5,0,0,0,55,87.7Z" transform="translate(-25.5 -34.7)" style="fill:#c5cae9"/><path d="M92,34.7H66a3.5,3.5,0,0,0-3.5,3.5V81.5A3.5,3.5,0,0,0,66,85H92a3.5,3.5,0,0,0,3.5-3.5V38.2A3.5,3.5,0,0,0,92,34.7Z" transform="translate(-25.5 -34.7)" style="fill:#c5cae9"/><path d="M92,87.7H66a3.5,3.5,0,0,0-3.5,3.5v43.3A3.5,3.5,0,0,0,66,138H92a3.5,3.5,0,0,0,3.5-3.5V91.2A3.5,3.5,0,0,0,92,87.7Z" transform="translate(-25.5 -34.7)" style="fill:#c5cae9"/><path d="M92,140.7H66a3.5,3.5,0,0,0-3.5,3.5v43.3A3.5,3.5,0,0,0,66,191H92a3.5,3.5,0,0,0,3.5-3.5V144.2A3.5,3.5,0,0,0,92,140.7Z" transform="translate(-25.5 -34.7)" style="fill:#c5cae9"/><path d="M128,87.7H102a3.5,3.5,0,0,0-3.5,3.5v43.3A3.5,3.5,0,0,0,102,138h26a3.5,3.5,0,0,0,3.5-3.5V91.2A3.5,3.5,0,0,0,128,87.7Z" transform="translate(-25.5 -34.7)" style="fill:#c5cae9"/><path d="M34.9,119.3c-3-5,2-8,2-8s3-1,4-3,3-4,5-4,7,2,5,7c-1,3-2,4-4,7S37.9,124.3,34.9,119.3Z" transform="translate(-25.5 -34.7)" style="fill:#1a237e"/><path d="M72,119.4c-3-5,2-8,2-8s3-1,4-3,3-4,5-4,7,2,5,7c-1,3-2,4-4,7S75,124.4,72,119.4Z" transform="translate(-25.5 -34.7)" style="fill:#1a237e"/><path d="M71,65.4c-3-5,2-8,2-8s3-1,4-3,3-4,5-4,7,2,5,7c-1,3-2,4-4,7S74,70.4,71,65.4Z" transform="translate(-25.5 -34.7)" style="fill:#1a237e"/><path d="M72,171.4c-3-5,2-8,2-8s3-1,4-3,3-4,5-4,7,2,5,7c-1,3-2,4-4,7S75,176.4,72,171.4Z" transform="translate(-25.5 -34.7)" style="fill:#1a237e"/><path d="M108,119.4c-3-5,2-8,2-8s3-1,4-3,3-4,5-4,7,2,5,7c-1,3-2,4-4,7S111,124.4,108,119.4Z" transform="translate(-25.5 -34.7)" style="fill:#1a237e"/></svg>