<svg id="Layer_1" data-name="Layer 1" xmlns="http://www.w3.org/2000/svg" viewBox="0 0 122 166.3"><title>wincon3_3</title><path d="M46,28.7H20a3.5,3.5,0,0,0-3.5,3.5V75.5A3.5,3.5,0,0,0,20,79H46a3.5,3.5,0,0,0,3.5-3.5V32.2A3.5,3.5,0,0,0,46,28.7Z" transform="translate(-16.5 -28.7)" style="fill:#c5cae9"/><path d="M46,144.7H20a3.5,3.5,0,0,0-3.5,3.5v43.3A3.5,3.5,0,0,0,20,195H46a3.5,3.5,0,0,0,3.5-3.5V148.2A3.5,3.5,0,0,0,46,144.7Z" transform="translate(-16.5 -28.7)" style="fill:#c5cae9"/><path d="M135,28.7H109a3.5,3.5,0,0,0-3.5,3.5V75.5A3.5,3.5,0,0,0,109,79h26a3.5,3.5,0,0,0,3.5-3.5V32.2A3.5,3.5,0,0,0,135,28.7Z" transform="translate(-16.5 -28.7)" style="fill:#c5cae9"/><path d="M135,144.7H109a3.5,3.5,0,0,0-3.5,3.5v43.3A3.5,3.5,0,0,0,109,195h26a3.5,3.5,0,0,0,3.5-3.5V148.2A3.5,3.5,0,0,0,135,144.7Z" transform="translate(-16.5 -28.7)" style="fill:#c5cae9"/><path d="M114,60.5c-3-5,2-8,2-8s3-1,4-3,3-4,5-4,7,2,5,7c-1,3-2,4-4,7S117,65.5,114,60.5Z" transform="translate(-16.5 -28.7)" style="fill:#1a237e"/><path d="M114,178.5c-3-5,2-8,2-8s3-1,4-3,3-4,5-4,7,2,5,7c-1,3-2,4-4,7S117,183.5,114,178.5Z" transform="translate(-16.5 -28.7)" style="fill:#1a237e"/><path d="M25,178.5c-3-5,2-8,2-8s3-1,4-3,3-4,5-4,7,2,5,7c-1,3-2,4-4,7S28,183.5,25,178.5Z" transform="translate(-16.5 -28.7)" style="fill:#1a237e"/><path d="M25,60.5c-3-5,2-8,2-8s3-1,4-3,3-4,5-4,7,2,5,7c-1,3-2,4-4,7S28,65.5,25,60.5Z" transform="translate(-16.5 -28.7)" style="fill:#1a237e"/></svg>