<svg id="Layer_1" data-name="Layer 1" xmlns="http://www.w3.org/2000/svg" viewBox="0 0 143.3 209.7"><title>wincon3</title><path d="M12.4,5.9H64.1a6.6,6.6,0,0,1,6.7,6.5V89.6a6.6,6.6,0,0,1-6.7,6.6H12.4a6.6,6.6,0,0,1-6.7-6.6V12.4A6.6,6.6,0,0,1,12.4,5.9Z" transform="translate(-5.7 -5.9)" style="fill:#4f307a"/><path d="M90.6,5.9h51.6a6.6,6.6,0,0,1,6.8,6.5V89.6a6.6,6.6,0,0,1-6.8,6.6H90.6a6.7,6.7,0,0,1-6.8-6.6V12.4A6.7,6.7,0,0,1,90.6,5.9Z" transform="translate(-5.7 -5.9)" style="fill:#4f307a"/><path d="M12.4,125.3H64.1a6.7,6.7,0,0,1,6.7,6.6v77.2a6.6,6.6,0,0,1-6.7,6.5H12.4a6.6,6.6,0,0,1-6.7-6.5V131.9A6.7,6.7,0,0,1,12.4,125.3Z" transform="translate(-5.7 -5.9)" style="fill:#4f307a"/><path d="M90.6,125.3h51.6a6.7,6.7,0,0,1,6.8,6.6v77.2a6.6,6.6,0,0,1-6.8,6.5H90.6a6.7,6.7,0,0,1-6.8-6.5V131.9A6.8,6.8,0,0,1,90.6,125.3Z" transform="translate(-5.7 -5.9)" style="fill:#4f307a"/><path d="M12.9,9.8H33.5a3.1,3.1,0,0,1,3.1,3.1V46.5a3,3,0,0,1-3.1,3H12.9a3.1,3.1,0,0,1-3.2-3V12.9A3.1,3.1,0,0,1,12.9,9.8Z" transform="translate(-5.7 -5.9)" style="fill:#c5cae9"/><path d="M-.4.1" transform="translate(-5.7 -5.9)" style="fill:#c5cae9"/><path d="M43,9.8H63.6a3.1,3.1,0,0,1,3.2,3.1V46.5a3.1,3.1,0,0,1-3.2,3H43a3.1,3.1,0,0,1-3.2-3V12.9A3.1,3.1,0,0,1,43,9.8Z" transform="translate(-5.7 -5.9)" style="fill:#c5cae9"/><path d="M-.4.1" transform="translate(-5.7 -5.9)" style="fill:#c5cae9"/><path d="M12.9,52.8H33.5a3.1,3.1,0,0,1,3.1,3.1V89.5a3.1,3.1,0,0,1-3.1,3.1H12.9a3.1,3.1,0,0,1-3.2-3.1V55.9A3.1,3.1,0,0,1,12.9,52.8Z" transform="translate(-5.7 -5.9)" style="fill:#c5cae9"/><path d="M-.4.1" transform="translate(-5.7 -5.9)" style="fill:#c5cae9"/><path d="M43,52.8H63.6a3.1,3.1,0,0,1,3.2,3.1V89.5a3.1,3.1,0,0,1-3.2,3.1H43a3.1,3.1,0,0,1-3.2-3.1V55.9A3.1,3.1,0,0,1,43,52.8Z" transform="translate(-5.7 -5.9)" style="fill:#c5cae9"/><path d="M-.4.1" transform="translate(-5.7 -5.9)" style="fill:#c5cae9"/><path d="M91,8.8h20.6a3.1,3.1,0,0,1,3.2,3.1V45.5a3.1,3.1,0,0,1-3.2,3.1H91a3.2,3.2,0,0,1-3.2-3.1V11.9A3.2,3.2,0,0,1,91,8.8Z" transform="translate(-5.7 -5.9)" style="fill:#c5cae9"/><path d="M-.4.1" transform="translate(-5.7 -5.9)" style="fill:#c5cae9"/><path d="M121.2,8.8h20.6a3.2,3.2,0,0,1,3.2,3.1V45.5a3.2,3.2,0,0,1-3.2,3.1H121.2a3.1,3.1,0,0,1-3.2-3.1V11.9A3.1,3.1,0,0,1,121.2,8.8Z" transform="translate(-5.7 -5.9)" style="fill:#c5cae9"/><path d="M-.4.1" transform="translate(-5.7 -5.9)" style="fill:#c5cae9"/><path d="M91,51.9h20.6a3.1,3.1,0,0,1,3.2,3V88.5a3.1,3.1,0,0,1-3.2,3.1H91a3.2,3.2,0,0,1-3.2-3.1V54.9A3.1,3.1,0,0,1,91,51.9Z" transform="translate(-5.7 -5.9)" style="fill:#c5cae9"/><path d="M-.4.1" transform="translate(-5.7 -5.9)" style="fill:#c5cae9"/><path d="M121.2,51.9h20.6a3.1,3.1,0,0,1,3.2,3V88.5a3.2,3.2,0,0,1-3.2,3.1H121.2a3.1,3.1,0,0,1-3.2-3.1V54.9A3.1,3.1,0,0,1,121.2,51.9Z" transform="translate(-5.7 -5.9)" style="fill:#c5cae9"/><path d="M-.4.1" transform="translate(-5.7 -5.9)" style="fill:#c5cae9"/><path d="M12.9,172.2H33.5a3.1,3.1,0,0,1,3.1,3.1v33.6a3.1,3.1,0,0,1-3.1,3.1H12.9a3.1,3.1,0,0,1-3.2-3.1V175.3A3.1,3.1,0,0,1,12.9,172.2Z" transform="translate(-5.7 -5.9)" style="fill:#c5cae9"/><path d="M-.4.1" transform="translate(-5.7 -5.9)" style="fill:#c5cae9"/><path d="M12.9,129.2H33.5a3.1,3.1,0,0,1,3.1,3.1v33.6a3.1,3.1,0,0,1-3.1,3.1H12.9a3.1,3.1,0,0,1-3.2-3.1V132.3A3.1,3.1,0,0,1,12.9,129.2Z" transform="translate(-5.7 -5.9)" style="fill:#c5cae9"/><path d="M-.4.1" transform="translate(-5.7 -5.9)" style="fill:#c5cae9"/><path d="M43,129.2H63.6a3.1,3.1,0,0,1,3.2,3.1v33.6a3.1,3.1,0,0,1-3.2,3.1H43a3.1,3.1,0,0,1-3.2-3.1V132.3A3.1,3.1,0,0,1,43,129.2Z" transform="translate(-5.7 -5.9)" style="fill:#c5cae9"/><path d="M-.4.1" transform="translate(-5.7 -5.9)" style="fill:#c5cae9"/><path d="M43,172.2H63.6a3.1,3.1,0,0,1,3.2,3.1v33.6a3.1,3.1,0,0,1-3.2,3.1H43a3.1,3.1,0,0,1-3.2-3.1V175.3A3.1,3.1,0,0,1,43,172.2Z" transform="translate(-5.7 -5.9)" style="fill:#c5cae9"/><path d="M-.4.1" transform="translate(-5.7 -5.9)" style="fill:#c5cae9"/><path d="M91,129.2h20.6a3.1,3.1,0,0,1,3.2,3.1v33.6a3.1,3.1,0,0,1-3.2,3.1H91a3.2,3.2,0,0,1-3.2-3.1V132.3A3.2,3.2,0,0,1,91,129.2Z" transform="translate(-5.7 -5.9)" style="fill:#c5cae9"/><path d="M-.4.1" transform="translate(-5.7 -5.9)" style="fill:#c5cae9"/><path d="M121.2,129.2h20.6a3.2,3.2,0,0,1,3.2,3.1v33.6a3.2,3.2,0,0,1-3.2,3.1H121.2a3.1,3.1,0,0,1-3.2-3.1V132.3A3.1,3.1,0,0,1,121.2,129.2Z" transform="translate(-5.7 -5.9)" style="fill:#c5cae9"/><path d="M-.4.1" transform="translate(-5.7 -5.9)" style="fill:#c5cae9"/><path d="M91,172.2h20.6a3.1,3.1,0,0,1,3.2,3.1v33.6a3.1,3.1,0,0,1-3.2,3.1H91a3.2,3.2,0,0,1-3.2-3.1V175.3A3.2,3.2,0,0,1,91,172.2Z" transform="translate(-5.7 -5.9)" style="fill:#c5cae9"/><path d="M-.4.1" transform="translate(-5.7 -5.9)" style="fill:#c5cae9"/><path d="M121.2,172.2h20.6a3.2,3.2,0,0,1,3.2,3.1v33.6a3.2,3.2,0,0,1-3.2,3.1H121.2a3.1,3.1,0,0,1-3.2-3.1V175.3A3.1,3.1,0,0,1,121.2,172.2Z" transform="translate(-5.7 -5.9)" style="fill:#c5cae9"/><path d="M-.4.1" transform="translate(-5.7 -5.9)" style="fill:#c5cae9"/><path d="M16,36c-3-5,2-8,2-8s3-1,4-3,3-4,5-4,7,2,5,7c-1,3-2,4-4,7S19,41,16,36Z" transform="translate(-5.7 -5.9)" style="fill:#1a237e"/><path d="M46,36c-3-5,2-8,2-8s3-1,4-3,3-4,5-4,7,2,5,7c-1,3-2,4-4,7S49,41,46,36Z" transform="translate(-5.7 -5.9)" style="fill:#1a237e"/><path d="M46,78c-3-5,2-8,2-8s3-1,4-3,3-4,5-4,7,2,5,7c-1,3-2,4-4,7S49,83,46,78Z" transform="translate(-5.7 -5.9)" style="fill:#1a237e"/><path d="M16,79c-3-5,2-8,2-8s3-1,4-3,3-4,5-4,7,2,5,7c-1,3-2,4-4,7S19,84,16,79Z" transform="translate(-5.7 -5.9)" style="fill:#1a237e"/><path d="M94,35c-3-5,2-8,2-8s3-1,4-3,3-4,5-4,7,2,5,7c-1,3-2,4-4,7S97,40,94,35Z" transform="translate(-5.7 -5.9)" style="fill:#1a237e"/><path d="M124,35c-3-5,2-8,2-8s3-1,4-3,3-4,5-4,7,2,5,7c-1,3-2,4-4,7S127,40,124,35Z" transform="translate(-5.7 -5.9)" style="fill:#1a237e"/><path d="M124,77c-3-5,2-8,2-8s3-1,4-3,3-4,5-4,7,2,5,7c-1,3-2,4-4,7S127,82,124,77Z" transform="translate(-5.7 -5.9)" style="fill:#1a237e"/><path d="M94,78c-3-5,2-8,2-8s3-1,4-3,3-4,5-4,7,2,5,7c-1,3-2,4-4,7S97,83,94,78Z" transform="translate(-5.7 -5.9)" style="fill:#1a237e"/><path d="M94,156c-3-5,2-8,2-8s3-1,4-3,3-4,5-4,7,2,5,7c-1,3-2,4-4,7S97,161,94,156Z" transform="translate(-5.7 -5.9)" style="fill:#1a237e"/><path d="M124,156c-3-5,2-8,2-8s3-1,4-3,3-4,5-4,7,2,5,7c-1,3-2,4-4,7S127,161,124,156Z" transform="translate(-5.7 -5.9)" style="fill:#1a237e"/><path d="M124,198c-3-5,2-8,2-8s3-1,4-3,3-4,5-4,7,2,5,7c-1,3-2,4-4,7S127,203,124,198Z" transform="translate(-5.7 -5.9)" style="fill:#1a237e"/><path d="M93,199c-3-5,2-8,2-8s3-1,4-3,3-4,5-4,7,2,5,7c-1,3-2,4-4,7S96,204,93,199Z" transform="translate(-5.7 -5.9)" style="fill:#1a237e"/><path d="M16,156c-3-5,2-8,2-8s3-1,4-3,3-4,5-4,7,2,5,7c-1,3-2,4-4,7S19,161,16,156Z" transform="translate(-5.7 -5.9)" style="fill:#1a237e"/><path d="M45,156c-3-5,2-8,2-8s3-1,4-3,3-4,5-4,7,2,5,7c-1,3-2,4-4,7S48,161,45,156Z" transform="translate(-5.7 -5.9)" style="fill:#1a237e"/><path d="M45,198c-3-5,2-8,2-8s3-1,4-3,3-4,5-4,7,2,5,7c-1,3-2,4-4,7S48,203,45,198Z" transform="translate(-5.7 -5.9)" style="fill:#1a237e"/><path d="M14,199c-3-5,2-8,2-8s3-1,4-3,3-4,5-4,7,2,5,7c-1,3-2,4-4,7S17,204,14,199Z" transform="translate(-5.7 -5.9)" style="fill:#1a237e"/></svg>