<svg id="Layer_1" data-name="Layer 1" xmlns="http://www.w3.org/2000/svg" viewBox="0 0 147 211.2"><title>wincon4</title><path d="M47.1,56.9h62.8a5.8,5.8,0,0,1,6.1,5.6v95.4a5.8,5.8,0,0,1-6.1,5.6H47.1a5.8,5.8,0,0,1-6.1-5.6V62.5A5.8,5.8,0,0,1,47.1,56.9Z" transform="translate(-4 -4.4)" style="fill:#6f42c1"/><path d="M7.2,4.4H31a3.1,3.1,0,0,1,3.2,3.1V45.9A3.1,3.1,0,0,1,31,49H7.2A3.1,3.1,0,0,1,4,45.9V7.5A3.1,3.1,0,0,1,7.2,4.4Z" transform="translate(-4 -4.4)" style="fill:#c5cae9"/><path d="M0,.5" transform="translate(-4 -4.4)" style="fill:#c5cae9"/><path d="M84.4,4.4h23.9a3.2,3.2,0,0,1,3.2,3.1V45.9a3.2,3.2,0,0,1-3.2,3.1H84.4a3.1,3.1,0,0,1-3.1-3.1V7.5A3.1,3.1,0,0,1,84.4,4.4Z" transform="translate(-4 -4.4)" style="fill:#c5cae9"/><path d="M0,.5" transform="translate(-4 -4.4)" style="fill:#c5cae9"/><path d="M46.3,4.4H70.1a3.1,3.1,0,0,1,3.2,3.1V45.9A3.1,3.1,0,0,1,70.1,49H46.3a3.2,3.2,0,0,1-3.2-3.1V7.5A3.2,3.2,0,0,1,46.3,4.4Z" transform="translate(-4 -4.4)" style="fill:#c5cae9"/><path d="M0,.5" transform="translate(-4 -4.4)" style="fill:#c5cae9"/><path d="M123.6,4.4h23.8a3.1,3.1,0,0,1,3.2,3.1V45.9a3.1,3.1,0,0,1-3.2,3.1H123.6a3.1,3.1,0,0,1-3.2-3.1V7.5A3.1,3.1,0,0,1,123.6,4.4Z" transform="translate(-4 -4.4)" style="fill:#c5cae9"/><path d="M0,.5" transform="translate(-4 -4.4)" style="fill:#c5cae9"/><path d="M7.2,171H31a3.1,3.1,0,0,1,3.2,3.1v38.4a3.1,3.1,0,0,1-3.2,3.1H7.2A3.1,3.1,0,0,1,4,212.5V174.1A3.1,3.1,0,0,1,7.2,171Z" transform="translate(-4 -4.4)" style="fill:#c5cae9"/><path d="M0,.5" transform="translate(-4 -4.4)" style="fill:#c5cae9"/><path d="M84.4,171h23.9a3.2,3.2,0,0,1,3.2,3.1v38.4a3.2,3.2,0,0,1-3.2,3.1H84.4a3.1,3.1,0,0,1-3.1-3.1V174.1A3.1,3.1,0,0,1,84.4,171Z" transform="translate(-4 -4.4)" style="fill:#c5cae9"/><path d="M0,.5" transform="translate(-4 -4.4)" style="fill:#c5cae9"/><path d="M46.3,171H70.1a3.1,3.1,0,0,1,3.2,3.1v38.4a3.1,3.1,0,0,1-3.2,3.1H46.3a3.2,3.2,0,0,1-3.2-3.1V174.1A3.2,3.2,0,0,1,46.3,171Z" transform="translate(-4 -4.4)" style="fill:#c5cae9"/><path d="M0,.5" transform="translate(-4 -4.4)" style="fill:#c5cae9"/><path d="M123.6,171h23.8a3.1,3.1,0,0,1,3.2,3.1v38.4a3.1,3.1,0,0,1-3.2,3.1H123.6a3.1,3.1,0,0,1-3.2-3.1V174.1A3.1,3.1,0,0,1,123.6,171Z" transform="translate(-4 -4.4)" style="fill:#c5cae9"/><path d="M0,.5" transform="translate(-4 -4.4)" style="fill:#c5cae9"/><path d="M7.2,59.6H31a3.1,3.1,0,0,1,3.2,3.1v38.4a3.1,3.1,0,0,1-3.2,3.1H7.2A3.1,3.1,0,0,1,4,101.1V62.7A3.1,3.1,0,0,1,7.2,59.6Z" transform="translate(-4 -4.4)" style="fill:#c5cae9"/><path d="M0,.5" transform="translate(-4 -4.4)" style="fill:#c5cae9"/><path d="M7.2,115.8H31a3.1,3.1,0,0,1,3.2,3.1v38.4a3.1,3.1,0,0,1-3.2,3.1H7.2A3.1,3.1,0,0,1,4,157.3V118.9A3.1,3.1,0,0,1,7.2,115.8Z" transform="translate(-4 -4.4)" style="fill:#c5cae9"/><path d="M0,.5" transform="translate(-4 -4.4)" style="fill:#c5cae9"/><path d="M124,59.6h23.8a3.1,3.1,0,0,1,3.2,3.1v38.4a3.1,3.1,0,0,1-3.2,3.1H124a3.2,3.2,0,0,1-3.2-3.1V62.7A3.2,3.2,0,0,1,124,59.6Z" transform="translate(-4 -4.4)" style="fill:#c5cae9"/><path d="M0,.5" transform="translate(-4 -4.4)" style="fill:#c5cae9"/><path d="M124,115.8h23.8a3.1,3.1,0,0,1,3.2,3.1v38.4a3.1,3.1,0,0,1-3.2,3.1H124a3.2,3.2,0,0,1-3.2-3.1V118.9A3.2,3.2,0,0,1,124,115.8Z" transform="translate(-4 -4.4)" style="fill:#c5cae9"/><path d="M0,.5" transform="translate(-4 -4.4)" style="fill:#c5cae9"/><path d="M49.1,63.5H72.9a3.1,3.1,0,0,1,3.2,3.1V105a3.1,3.1,0,0,1-3.2,3.1H49.1a3.2,3.2,0,0,1-3.2-3.1V66.6A3.2,3.2,0,0,1,49.1,63.5Z" transform="translate(-4 -4.4)" style="fill:#c5cae9"/><path d="M0,.5" transform="translate(-4 -4.4)" style="fill:#c5cae9"/><path d="M49.1,111H72.9a3.1,3.1,0,0,1,3.2,3.1v38.4a3.1,3.1,0,0,1-3.2,3H49.1a3.1,3.1,0,0,1-3.2-3V114.1A3.1,3.1,0,0,1,49.1,111Z" transform="translate(-4 -4.4)" style="fill:#c5cae9"/><path d="M0,.5" transform="translate(-4 -4.4)" style="fill:#c5cae9"/><path d="M83.1,63.5h23.8a3.1,3.1,0,0,1,3.2,3.1V105a3.1,3.1,0,0,1-3.2,3.1H83.1a3.1,3.1,0,0,1-3.2-3.1V66.6A3.1,3.1,0,0,1,83.1,63.5Z" transform="translate(-4 -4.4)" style="fill:#c5cae9"/><path d="M0,.5" transform="translate(-4 -4.4)" style="fill:#c5cae9"/><path d="M83.1,111h23.8a3.1,3.1,0,0,1,3.2,3.1v38.4a3.1,3.1,0,0,1-3.2,3H83.1a3.1,3.1,0,0,1-3.2-3V114.1A3.1,3.1,0,0,1,83.1,111Z" transform="translate(-4 -4.4)" style="fill:#c5cae9"/><path d="M0,.5" transform="translate(-4 -4.4)" style="fill:#c5cae9"/><path d="M54,93c-3-5,2-8,2-8s3-1,4-3,3-4,5-4,7,2,5,7c-1,3-2,4-4,7S57,98,54,93Z" transform="translate(-4 -4.4)" style="fill:#1a237e"/><path d="M53,140c-3-5,2-8,2-8s3-1,4-3,3-4,5-4,7,2,5,7c-1,3-2,4-4,7S56,145,53,140Z" transform="translate(-4 -4.4)" style="fill:#1a237e"/><path d="M88,140c-3-5,2-8,2-8s3-1,4-3,3-4,5-4,7,2,5,7c-1,3-2,4-4,7S91,145,88,140Z" transform="translate(-4 -4.4)" style="fill:#1a237e"/><path d="M88,93c-3-5,2-8,2-8s3-1,4-3,3-4,5-4,7,2,5,7c-1,3-2,4-4,7S91,98,88,93Z" transform="translate(-4 -4.4)" style="fill:#1a237e"/><path d="M128,88c-3-5,2-8,2-8s3-1,4-3,3-4,5-4,7,2,5,7c-1,3-2,4-4,7S131,93,128,88Z" transform="translate(-4 -4.4)" style="fill:#1a237e"/><path d="M128,33c-3-5,2-8,2-8s3-1,4-3,3-4,5-4,7,2,5,7c-1,3-2,4-4,7S131,38,128,33Z" transform="translate(-4 -4.4)" style="fill:#1a237e"/><path d="M89,33c-3-5,2-8,2-8s3-1,4-3,3-4,5-4,7,2,5,7c-1,3-2,4-4,7S92,38,89,33Z" transform="translate(-4 -4.4)" style="fill:#1a237e"/><path d="M50,33c-3-5,2-8,2-8s3-1,4-3,3-4,5-4,7,2,5,7c-1,3-2,4-4,7S53,38,50,33Z" transform="translate(-4 -4.4)" style="fill:#1a237e"/><path d="M11,33c-3-5,2-8,2-8s3-1,4-3,3-4,5-4,7,2,5,7c-1,3-2,4-4,7S14,38,11,33Z" transform="translate(-4 -4.4)" style="fill:#1a237e"/><path d="M11,88c-3-5,2-8,2-8s3-1,4-3,3-4,5-4,7,2,5,7c-1,3-2,4-4,7S14,93,11,88Z" transform="translate(-4 -4.4)" style="fill:#1a237e"/><path d="M11,144c-3-5,2-8,2-8s3-1,4-3,3-4,5-4,7,2,5,7c-1,3-2,4-4,7S14,149,11,144Z" transform="translate(-4 -4.4)" style="fill:#1a237e"/><path d="M11,201c-3-5,2-8,2-8s3-1,4-3,3-4,5-4,7,2,5,7c-1,3-2,4-4,7S14,206,11,201Z" transform="translate(-4 -4.4)" style="fill:#1a237e"/><path d="M50,201c-3-5,2-8,2-8s3-1,4-3,3-4,5-4,7,2,5,7c-1,3-2,4-4,7S53,206,50,201Z" transform="translate(-4 -4.4)" style="fill:#1a237e"/><path d="M89,201c-3-5,2-8,2-8s3-1,4-3,3-4,5-4,7,2,5,7c-1,3-2,4-4,7S92,206,89,201Z" transform="translate(-4 -4.4)" style="fill:#1a237e"/><path d="M128,201c-3-5,2-8,2-8s3-1,4-3,3-4,5-4,7,2,5,7c-1,3-2,4-4,7S131,206,128,201Z" transform="translate(-4 -4.4)" style="fill:#1a237e"/><path d="M130,144c-3-5,2-8,2-8s3-1,4-3,3-4,5-4,7,2,5,7c-1,3-2,4-4,7S133,149,130,144Z" transform="translate(-4 -4.4)" style="fill:#1a237e"/></svg>