<svg id="Layer_1" data-name="Layer 1" xmlns="http://www.w3.org/2000/svg" viewBox="0 0 142 209.3"><title>wincon1</title><path d="M36,60.7H10a3.5,3.5,0,0,0-3.5,3.5v43.3A3.5,3.5,0,0,0,10,111H36a3.5,3.5,0,0,0,3.5-3.5V64.2A3.5,3.5,0,0,0,36,60.7Z" transform="translate(-6.5 -7.7)" style="fill:#c5cae9"/><path d="M73,7.7H47a3.5,3.5,0,0,0-3.5,3.5V54.5A3.5,3.5,0,0,0,47,58H73a3.5,3.5,0,0,0,3.5-3.5V11.2A3.5,3.5,0,0,0,73,7.7Z" transform="translate(-6.5 -7.7)" style="fill:#c5cae9"/><path d="M73,60.7H47a3.5,3.5,0,0,0-3.5,3.5v43.3A3.5,3.5,0,0,0,47,111H73a3.5,3.5,0,0,0,3.5-3.5V64.2A3.5,3.5,0,0,0,73,60.7Z" transform="translate(-6.5 -7.7)" style="fill:#c5cae9"/><path d="M73,113.7H47a3.5,3.5,0,0,0-3.5,3.5v43.3A3.5,3.5,0,0,0,47,164H73a3.5,3.5,0,0,0,3.5-3.5V117.2A3.5,3.5,0,0,0,73,113.7Z" transform="translate(-6.5 -7.7)" style="fill:#c5cae9"/><path d="M73,166.7H47a3.5,3.5,0,0,0-3.5,3.5v43.3A3.5,3.5,0,0,0,47,217H73a3.5,3.5,0,0,0,3.5-3.5V170.2A3.5,3.5,0,0,0,73,166.7Z" transform="translate(-6.5 -7.7)" style="fill:#c5cae9"/><path d="M109,60.7H83a3.5,3.5,0,0,0-3.5,3.5v43.3A3.5,3.5,0,0,0,83,111h26a3.5,3.5,0,0,0,3.5-3.5V64.2A3.5,3.5,0,0,0,109,60.7Z" transform="translate(-6.5 -7.7)" style="fill:#c5cae9"/><path d="M145,60.7H119a3.5,3.5,0,0,0-3.5,3.5v43.3A3.5,3.5,0,0,0,119,111h26a3.5,3.5,0,0,0,3.5-3.5V64.2A3.5,3.5,0,0,0,145,60.7Z" transform="translate(-6.5 -7.7)" style="fill:#c5cae9"/><path d="M15.9,92.3c-3-5,2-8,2-8s3-1,4-3,3-4,5-4,7,2,5,7c-1,3-2,4-4,7S18.9,97.3,15.9,92.3Z" transform="translate(-6.5 -7.7)" style="fill:#1a237e"/><path d="M53,92.4c-3-5,2-8,2-8s3-1,4-3,3-4,5-4,7,2,5,7c-1,3-2,4-4,7S56,97.4,53,92.4Z" transform="translate(-6.5 -7.7)" style="fill:#1a237e"/><path d="M52,38.4c-3-5,2-8,2-8s3-1,4-3,3-4,5-4,7,2,5,7c-1,3-2,4-4,7S55,43.4,52,38.4Z" transform="translate(-6.5 -7.7)" style="fill:#1a237e"/><path d="M53,144.4c-3-5,2-8,2-8s3-1,4-3,3-4,5-4,7,2,5,7c-1,3-2,4-4,7S56,149.4,53,144.4Z" transform="translate(-6.5 -7.7)" style="fill:#1a237e"/><path d="M53,197.4c-3-5,2-8,2-8s3-1,4-3,3-4,5-4,7,2,5,7c-1,3-2,4-4,7S56,202.4,53,197.4Z" transform="translate(-6.5 -7.7)" style="fill:#1a237e"/><path d="M89,92.4c-3-5,2-8,2-8s3-1,4-3,3-4,5-4,7,2,5,7c-1,3-2,4-4,7S92,97.4,89,92.4Z" transform="translate(-6.5 -7.7)" style="fill:#1a237e"/><path d="M124,91.4c-3-5,2-8,2-8s3-1,4-3,3-4,5-4,7,2,5,7c-1,3-2,4-4,7S127,96.4,124,91.4Z" transform="translate(-6.5 -7.7)" style="fill:#1a237e"/></svg>