<?xml version="1.0" encoding="utf-8"?>
<!-- Generator: Adobe Illustrator 24.0.0, SVG Export Plug-In . SVG Version: 6.00 Build 0)  -->
<svg version="1.1" id="Layer_1" xmlns="http://www.w3.org/2000/svg" xmlns:xlink="http://www.w3.org/1999/xlink" x="0px" y="0px"
	 viewBox="0 0 155 235.4" style="enable-background:new 0 0 155 235.4;" xml:space="preserve">
<style type="text/css">
	.st0{display:none;fill:#6F42C1;}
	.st1{fill:#C5CAE9;}
	.st2{fill:#1A237E;}
</style>
<g id="uid_21" transform="translate(0 70)">
	<path class="st0" d="M7.8,12h139.3c4.3,0,7.8,3.5,7.8,7.8v63.3c0,4.3-3.5,7.8-7.8,7.8H7.8C3.5,91,0,87.5,0,83.2V19.8
		C0,15.5,3.5,12,7.8,12z"/>
	<path class="st1" d="M10.2-9h25.6C37.6-9,39-7.6,39-5.8v48.6c0,1.8-1.4,3.2-3.2,3.2H10.2C8.4,46,7,44.6,7,42.8V-5.8
		C7-7.6,8.4-9,10.2-9z"/>
	<path class="st2" d="M16,26c-3-5,2-8,2-8s3-1,4-3s3-4,5-4s7,2,5,7c-1,3-2,4-4,7S19,31,16,26z"/>
	<path class="st1" d="M47.2,49h25.6c1.8,0,3.2,1.4,3.2,3.2v48.6c0,1.8-1.4,3.2-3.2,3.2H47.2c-1.8,0-3.2-1.4-3.2-3.2V52.2
		C44,50.4,45.4,49,47.2,49z"/>
	<path class="st2" d="M53,84c-3-5,2-8,2-8s3-1,4-3s3-4,5-4s7,2,5,7c-1,3-2,4-4,7S56,89,53,84z"/>
	<path class="st1" d="M84.2-9h25.6c1.8,0,3.2,1.4,3.2,3.2v48.6c0,1.8-1.4,3.2-3.2,3.2H84.2c-1.8,0-3.2-1.4-3.2-3.2V-5.8
		C81-7.6,82.4-9,84.2-9z"/>
	<path class="st2" d="M90,26c-3-5,2-8,2-8s3-1,4-3s3-4,5-4s7,2,5,7c-1,3-2,4-4,7S93,31,90,26z"/>
	<path class="st1" d="M121.2-9h25.6c1.8,0,3.2,1.4,3.2,3.2v48.6c0,1.8-1.4,3.2-3.2,3.2h-25.6c-1.8,0-3.2-1.4-3.2-3.2V-5.8
		C118-7.6,119.4-9,121.2-9z"/>
	<path class="st2" d="M126,26c-3-5,2-8,2-8s3-1,4-3s3-4,5-4s7,2,5,7c-1,3-2,4-4,7S129,31,126,26z"/>
	<path class="st1" d="M47.6-67.3h25.6c1.8,0,3.2,1.4,3.2,3.2v48.6c0,1.8-1.4,3.2-3.2,3.2H47.6c-1.8,0-3.2-1.4-3.2-3.2v-48.6
		C44.4-65.9,45.9-67.3,47.6-67.3z"/>
	<path class="st2" d="M53.4-32.3c-3-5,2-8,2-8s3-1,4-3s3-4,5-4c2,0,7,2,5,7c-1,3-2,4-4,7C63.4-30.3,56.4-27.3,53.4-32.3z"/>
	<path class="st1" d="M47.3-9.1H73c1.8,0,3.2,1.4,3.2,3.2v48.6c0,1.8-1.4,3.2-3.2,3.2H47.3c-1.8,0-3.2-1.4-3.2-3.2V-5.9
		C44.1-7.7,45.6-9.1,47.3-9.1z"/>
	<path class="st2" d="M53.1,25.9c-3-5,2-8,2-8s3-1,4-3s3-4,5-4c2,0,7,2,5,7c-1,3-2,4-4,7C63.1,27.9,56.1,30.9,53.1,25.9z"/>
	<path class="st1" d="M47.3,106.8H73c1.8,0,3.2,1.4,3.2,3.2v48.6c0,1.8-1.4,3.2-3.2,3.2H47.3c-1.8,0-3.2-1.4-3.2-3.2V110
		C44.1,108.3,45.6,106.8,47.3,106.8z"/>
	<path class="st2" d="M53.1,141.8c-3-5,2-8,2-8s3-1,4-3s3-4,5-4c2,0,7,2,5,7c-1,3-2,4-4,7C63.1,143.8,56.1,146.8,53.1,141.8z"/>
</g>
</svg>
