<svg xmlns="http://www.w3.org/2000/svg" xmlns:xlink="http://www.w3.org/1999/xlink" height="226" preserveAspectRatio="none" width="155" viewBox="0 0 155 226" >
    <g data-name="Layer 32" id="uid_14">
        <rect fill="#6f42c1" height="226" rx="6.61" ry="6.61" width="155" />
        <g data-name="Layer 27" id="uid_15">
            <rect fill="#4f307a" height="93" rx="6.74" ry="6.74" width="65" x="6" y="6" />
            <rect fill="#4f307a" height="93" rx="6.74" ry="6.74" width="65" x="84" y="6" />
            <rect fill="#4f307a" height="93" rx="6.74" ry="6.74" width="65" x="6" y="129" />
            <rect fill="#4f307a" height="93" rx="6.74" ry="6.74" width="65" x="84" y="129" />
        </g>
        <rect  fill="#c5cae9" height="40.96" rx="3.18" ry="3.18" width="26.92" x="10" y="10" />
        <path fill="#1a237e"
            d="M18.78 34.58a3.34 3.34 0 011.17-4.68 4.57 4.57 0 002.34-1.76C22.87 27 24 25.8 25.21 25.8s4.1 1.17 2.93 4.1A14.67 14.67 0 0125.8 34c-1.17 1.75-5.27 3.5-7.02.58z" />
        <rect  fill="#c5cae9" height="40.96" rx="3.18" ry="3.18" width="26.92" x="40.08" y="10" />
        <path fill="#1a237e"
            d="M48.86 34.58A3.34 3.34 0 0150 29.89a4.57 4.57 0 002.34-1.76C53 27 54.13 25.8 55.3 25.8s4.1 1.17 2.93 4.1a14.67 14.67 0 01-2.35 4.1c-1.17 1.75-5.26 3.5-7.02.58z" />
        <rect  fill="#c5cae9" height="40.96" rx="3.18" ry="3.18" width="26.92" x="10" y="54.33" />
        <path fill="#1a237e"
            d="M18.78 78.91a3.34 3.34 0 011.17-4.68 4.57 4.57 0 002.34-1.76c.59-1.17 1.76-2.34 2.93-2.34s4.1 1.17 2.93 4.1a14.67 14.67 0 01-2.34 4.1c-1.18 1.75-5.28 3.51-7.03.58z" />
        <rect  fill="#c5cae9" height="40.96" rx="3.18" ry="3.18" width="26.92" x="40.08" y="54.33" />
        <path fill="#1a237e"
            d="M48.86 78.91A3.34 3.34 0 0150 74.23a4.57 4.57 0 002.34-1.76c.59-1.17 1.76-2.34 2.93-2.34s4.1 1.17 2.93 4.1a14.67 14.67 0 01-2.34 4.1c-1.15 1.75-5.24 3.51-7 .58z" />
        <rect  fill="#c5cae9" height="40.96" rx="3.18" ry="3.18" width="26.92" x="88" y="9" />
        <path fill="#1a237e"
            d="M96.78 33.58a3.34 3.34 0 011.17-4.68 4.57 4.57 0 002.34-1.76c.59-1.17 1.76-2.34 2.93-2.34s4.1 1.17 2.93 4.1a14.67 14.67 0 01-2.35 4.1c-1.17 1.75-5.27 3.5-7.02.58z" />
        <rect  fill="#c5cae9" height="40.96" rx="3.18" ry="3.18" width="26.92" x="118.08" y="9" />
        <path fill="#1a237e"
            d="M126.86 33.58a3.34 3.34 0 011.14-4.69 4.57 4.57 0 002.34-1.76c.59-1.17 1.76-2.34 2.93-2.34s4.1 1.17 2.93 4.1a14.67 14.67 0 01-2.34 4.1c-1.15 1.76-5.24 3.51-7 .59z" />
        <rect  fill="#c5cae9" height="40.96" rx="3.18" ry="3.18" width="26.92" x="88" y="53.33" />
        <path fill="#1a237e"
            d="M96.78 77.91a3.34 3.34 0 011.17-4.68 4.57 4.57 0 002.34-1.76c.59-1.17 1.76-2.34 2.93-2.34s4.1 1.17 2.93 4.1a14.67 14.67 0 01-2.34 4.1c-1.18 1.75-5.28 3.51-7.03.58z" />
        <rect  fill="#c5cae9" height="40.96" rx="3.18" ry="3.18" width="26.92" x="118.08" y="53.33" />
        <path fill="#1a237e"
            d="M126.86 77.91a3.34 3.34 0 011.14-4.68 4.57 4.57 0 002.34-1.76c.59-1.17 1.76-2.34 2.93-2.34s4.1 1.17 2.93 4.1a14.67 14.67 0 01-2.34 4.1c-1.15 1.75-5.24 3.51-7 .58z" />
        <rect  fill="#c5cae9" height="40.96" rx="3.18" ry="3.18" width="26.92" x="10" y="177.33" />
        <path fill="#1a237e"
            d="M18.78 201.91a3.34 3.34 0 011.17-4.68 4.57 4.57 0 002.34-1.76c.59-1.17 1.76-2.34 2.93-2.34s4.1 1.17 2.93 4.1a14.67 14.67 0 01-2.34 4.1c-1.18 1.75-5.28 3.51-7.03.58z" />
        <rect  fill="#c5cae9" height="40.96" rx="3.18" ry="3.18" width="26.92" x="10" y="133" />
        <path fill="#1a237e"
            d="M18.78 157.58a3.34 3.34 0 011.17-4.68 4.57 4.57 0 002.34-1.76c.59-1.17 1.76-2.34 2.93-2.34s4.1 1.17 2.93 4.1a14.67 14.67 0 01-2.35 4.1c-1.17 1.75-5.27 3.5-7.02.58z" />
        <rect  fill="#c5cae9" height="40.96" rx="3.18" ry="3.18" width="26.92" x="40.08" y="133" />
        <path fill="#1a237e"
            d="M48.86 157.58a3.34 3.34 0 011.14-4.69 4.57 4.57 0 002.34-1.76c.59-1.17 1.76-2.34 2.93-2.34s4.1 1.17 2.93 4.1a14.67 14.67 0 01-2.34 4.1c-1.15 1.76-5.24 3.51-7 .59z" />
        <rect  fill="#c5cae9" height="40.96" rx="3.18" ry="3.18" width="26.92" x="40.08" y="177.33" />
        <path fill="#1a237e"
            d="M48.86 201.91a3.34 3.34 0 011.14-4.68 4.57 4.57 0 002.34-1.76c.59-1.17 1.76-2.34 2.93-2.34s4.1 1.17 2.93 4.1a14.67 14.67 0 01-2.34 4.1c-1.15 1.75-5.24 3.51-7 .58z" />
        <rect  fill="#c5cae9" height="40.96" rx="3.18" ry="3.18" width="26.92" x="88" y="133" />
        <path fill="#1a237e"
            d="M96.78 157.58a3.34 3.34 0 011.17-4.68 4.57 4.57 0 002.34-1.76c.59-1.17 1.76-2.34 2.93-2.34s4.1 1.17 2.93 4.1a14.67 14.67 0 01-2.34 4.1c-1.18 1.75-5.28 3.5-7.03.58z" />
        <rect  fill="#c5cae9" height="40.96" rx="3.18" ry="3.18" width="26.92" x="118.08" y="133" />
        <path fill="#1a237e"
            d="M126.86 157.58a3.34 3.34 0 011.17-4.68 4.57 4.57 0 002.34-1.76c.59-1.17 1.76-2.34 2.93-2.34s4.1 1.17 2.93 4.1a14.67 14.67 0 01-2.34 4.1c-1.18 1.75-5.27 3.5-7.03.58z" />
        <rect  fill="#c5cae9" height="40.96" rx="3.18" ry="3.18" width="26.92" x="88" y="177.33" />
        <path fill="#1a237e"
            d="M96.78 201.91a3.34 3.34 0 011.17-4.68 4.57 4.57 0 002.34-1.76c.59-1.17 1.76-2.34 2.93-2.34s4.1 1.17 2.93 4.1a14.67 14.67 0 01-2.34 4.1c-1.18 1.75-5.28 3.51-7.03.58z" />
        <rect  fill="#c5cae9" height="40.96" rx="3.18" ry="3.18" width="26.92" x="118.08" y="177.33" />
        <path fill="#1a237e"
            d="M126.86 201.91a3.34 3.34 0 011.17-4.68 4.57 4.57 0 002.34-1.76c.59-1.17 1.76-2.34 2.93-2.34s4.1 1.17 2.93 4.1a14.67 14.67 0 01-2.34 4.1c-1.18 1.75-5.27 3.51-7.03.58z" />
    </g>
    
</svg>