<svg xmlns="http://www.w3.org/2000/svg" xmlns:xlink="http://www.w3.org/1999/xlink" height="226" preserveAspectRatio="none" width="155" viewBox="0 0 155 226" >
    <g data-name="Layer 24" id="uid_17"  transform="translate(58 3)">
        <rect fill="#6f42c1" height="225" rx="8.38" ry="8.38" width="42" />
        <rect fill="#c5cae9" height="51.74" rx="3.18" ry="3.18" width="34" x="4" y="4" />
        <path fill="#1a237e"
            d="M15.09 35c-2.22-3.7 1.48-5.91 1.48-5.91a5.77 5.77 0 003-2.22c.74-1.48 2.22-3 3.7-3s5.17 1.48 3.7 5.17c-.74 2.22-1.48 3-3 5.17s-6.67 4.53-8.88.79z" />
        <rect fill="#c5cae9" height="51.74" rx="3.18" ry="3.18" width="34" x="4" y="58.7" />
        <path fill="#1a237e"
            d="M15.09 89.74c-2.22-3.7 1.48-5.91 1.48-5.91a5.77 5.77 0 003-2.22c.74-1.48 2.22-3 3.7-3s5.17 1.48 3.7 5.17c-.74 2.22-1.48 3-3 5.17s-6.67 4.48-8.88.79z" />
        <rect fill="#c5cae9" height="51.74" rx="3.18" ry="3.18" width="34" x="4" y="113.39" />
        <path fill="#1a237e"
            d="M15.09 144.43c-2.22-3.7 1.48-5.91 1.48-5.91a5.77 5.77 0 003-2.22c.74-1.48 2.22-3 3.7-3s5.17 1.48 3.7 5.17c-.74 2.22-1.48 3-3 5.17s-6.67 4.49-8.88.79z" />
        <rect fill="#c5cae9" height="51.74" rx="3.18" ry="3.18" width="34" x="4" y="168.83" />
        <path fill="#1a237e"
            d="M15.09 199.87c-2.22-3.7 1.48-5.91 1.48-5.91a5.77 5.77 0 003-2.22c.74-1.48 2.22-3 3.7-3s5.17 1.48 3.7 5.17c-.74 2.22-1.48 3-3 5.17s-6.67 4.49-8.88.79z" />
    </g>
</svg>