<svg xmlns="http://www.w3.org/2000/svg" xmlns:xlink="http://www.w3.org/1999/xlink" height="226"
    preserveAspectRatio="none" width="155" viewBox="0 0 155 226">
    <g xmlns="http://www.w3.org/2000/svg" transform="scale(0.5)">
        <path
            d="M8.85 1.84L133.84 0a4.81 4.81 0 014.46 2.85l34.5 77.64a4.81 4.81 0 008.72.14l25.17-52A4.81 4.81 0 01211 26h104.39a4.81 4.81 0 014.34 6.88L233 214a4.81 4.81 0 00-.06 4l84.14 191.23a4.81 4.81 0 01-4.4 6.74H222.9a4.81 4.81 0 01-4.24-2.53l-38.07-70.94a4.81 4.81 0 00-8.61.27l-44.65 97.33a4.81 4.81 0 01-4.48 2.8L4.7 440.13a4.81 4.81 0 01-4.16-7l111.33-215.95a4.81 4.81 0 000-4.44L4.66 8.88a4.81 4.81 0 014.19-7.04z"
            fill="#fff" />
        <path d="M24.02 14.95l104-2 48 107 41-83 84 1-83 175 83 191h-72l-53-109-61 134h-96l109-217-104-197z"
            fill="#2e72ac" />
        <path fill="#002a8b"
            d="M25.02 14.95h64l-2 41 34 32 2 49 32 27 10 49 37 28 4 50 36 29 5 46 30 38h-48l-204-389zm277 23l-84 175-26-58 30-33 3-47 41-37h36z" />
        <path fill="#002a8b" d="M115.02 428.95l63-132-31-65-11 65-41 45-11 52-30 35h61z" />
        <path fill="#001669" d="M24.02 14.95l205 389h22l-217-389h-10zm278 23l-84 175-4-9 80-166h8z" />
        <path fill="#001669" d="M115.02 428.95l65-134-7-10-71 144h13z" />
    </g>
</svg>